<svg width="54" height="54" viewBox="0 0 54 54" fill="none" xmlns="http://www.w3.org/2000/svg">
    <circle cx="26.9999" cy="27" r="27" fill="#DEEEFF" />
    <path fill-rule="evenodd" clip-rule="evenodd"
        d="M26.7651 27.1742L17.4844 36.455L18.7218 37.6924L28.0026 28.4117L37.3015 37.7106L38.539 36.4731L29.24 27.1742L38.5208 17.8934L37.2834 16.656L28.0026 25.9368L18.74 16.6742L17.5025 17.9116L26.7651 27.1742Z"
        fill="#4F6D86" />
    <path
        d="M17.4844 36.455L17.1308 36.1014L16.7773 36.455L17.1308 36.8085L17.4844 36.455ZM26.7651 27.1742L27.1187 27.5278L27.4723 27.1742L27.1187 26.8207L26.7651 27.1742ZM18.7218 37.6924L18.3683 38.046L18.7218 38.3995L19.0754 38.046L18.7218 37.6924ZM28.0026 28.4117L28.3561 28.0581L28.0026 27.7045L27.649 28.0581L28.0026 28.4117ZM37.3015 37.7106L36.948 38.0641L37.3015 38.4177L37.6551 38.0641L37.3015 37.7106ZM38.539 36.4731L38.8925 36.8267L39.2461 36.4731L38.8925 36.1196L38.539 36.4731ZM29.24 27.1742L28.8865 26.8207L28.5329 27.1742L28.8865 27.5278L29.24 27.1742ZM38.5208 17.8934L38.8744 18.247L39.2279 17.8934L38.8744 17.5399L38.5208 17.8934ZM37.2834 16.656L37.6369 16.3024L37.2834 15.9489L36.9298 16.3024L37.2834 16.656ZM28.0026 25.9368L27.649 26.2903L28.0026 26.6439L28.3561 26.2903L28.0026 25.9368ZM18.74 16.6742L19.0935 16.3206L18.74 15.9671L18.3864 16.3206L18.74 16.6742ZM17.5025 17.9116L17.149 17.558L16.7954 17.9116L17.149 18.2651L17.5025 17.9116ZM17.8379 36.8085L27.1187 27.5278L26.4116 26.8207L17.1308 36.1014L17.8379 36.8085ZM19.0754 37.3389L17.8379 36.1014L17.1308 36.8085L18.3683 38.046L19.0754 37.3389ZM27.649 28.0581L18.3683 37.3389L19.0754 38.046L28.3561 28.7652L27.649 28.0581ZM37.6551 37.357L28.3561 28.0581L27.649 28.7652L36.948 38.0641L37.6551 37.357ZM38.1854 36.1196L36.948 37.357L37.6551 38.0641L38.8925 36.8267L38.1854 36.1196ZM28.8865 27.5278L38.1854 36.8267L38.8925 36.1196L29.5936 26.8207L28.8865 27.5278ZM38.1673 17.5399L28.8865 26.8207L29.5936 27.5278L38.8744 18.247L38.1673 17.5399ZM36.9298 17.0095L38.1673 18.247L38.8744 17.5399L37.6369 16.3024L36.9298 17.0095ZM28.3561 26.2903L37.6369 17.0095L36.9298 16.3024L27.649 25.5832L28.3561 26.2903ZM18.3864 17.0277L27.649 26.2903L28.3561 25.5832L19.0935 16.3206L18.3864 17.0277ZM17.8561 18.2651L19.0935 17.0277L18.3864 16.3206L17.149 17.558L17.8561 18.2651ZM27.1187 26.8207L17.8561 17.558L17.149 18.2651L26.4116 27.5278L27.1187 26.8207Z"
        fill="#4F6D86" />
</svg>
    