<svg width="56" height="56" viewBox="0 0 56 56" fill="none" xmlns="http://www.w3.org/2000/svg">
    <path
        d="M27.9927 6.23383C30.9474 6.23383 33.812 6.81187 36.5059 7.95101C39.1101 9.05242 41.4502 10.6307 43.4605 12.641C45.4708 14.6513 47.0485 16.9914 48.1505 19.5956C49.2902 22.2895 49.8677 25.1541 49.8677 28.1088C49.8677 31.0636 49.2896 33.9281 48.1505 36.622C47.0491 39.2262 45.4713 41.5663 43.4605 43.5766C41.4502 45.587 39.1101 47.1647 36.5059 48.2666C33.812 49.4063 30.9474 49.9838 27.9927 49.9838C25.0379 49.9838 22.1734 49.4058 19.4795 48.2666C16.8753 47.1652 14.5352 45.5875 12.5249 43.5766C10.5146 41.5663 8.93682 39.2262 7.83486 36.622C6.69518 33.9281 6.11768 31.0636 6.11768 28.1088C6.11768 25.1541 6.69572 22.2895 7.83486 19.5956C8.93627 16.9914 10.5146 14.6513 12.5249 12.641C14.5352 10.6307 16.8753 9.05297 19.4795 7.95101C22.1734 6.81133 25.0374 6.23383 27.9927 6.23383ZM27.9927 1.85883C13.495 1.85883 1.74268 13.6112 1.74268 28.1088C1.74268 42.6065 13.495 54.3588 27.9927 54.3588C42.4903 54.3588 54.2427 42.6065 54.2427 28.1088C54.2427 13.6112 42.4898 1.85883 27.9927 1.85883Z"
        fill="url(#paint0_linear_1313_2438)" />
    <path
        d="M28.0258 35.3588C26.914 35.3588 26.0133 34.5084 26.0133 33.4595C26.0133 33.4595 24.7741 19.7952 24.7725 15.2239C24.7719 13.8715 26.2293 12.9418 28.0264 12.9418C29.7031 12.9418 31.2141 13.7906 31.2141 15.1845C31.2141 19.8297 30.0389 33.4595 30.0389 33.4595C30.0383 34.5084 29.1371 35.3588 28.0258 35.3588Z"
        fill="url(#paint1_linear_1313_2438)" />
    <path
        d="M25.2437 40.541C25.2437 41.2662 25.5317 41.9617 26.0445 42.4745C26.5573 42.9872 27.2528 43.2753 27.978 43.2753C28.7032 43.2753 29.3987 42.9872 29.9115 42.4745C30.4243 41.9617 30.7124 41.2662 30.7124 40.541C30.7124 39.8158 30.4243 39.1203 29.9115 38.6075C29.3987 38.0947 28.7032 37.8066 27.978 37.8066C27.2528 37.8066 26.5573 38.0947 26.0445 38.6075C25.5317 39.1203 25.2437 39.8158 25.2437 40.541Z"
        fill="url(#paint2_linear_1313_2438)" />
    <defs>
        <linearGradient id="paint0_linear_1313_2438" x1="27.9927" y1="1.85883" x2="27.9927"
            y2="54.3588" gradientUnits="userSpaceOnUse">
            <stop stop-color="#FA393A" />
            <stop offset="1" stop-color="#FA6739" />
        </linearGradient>
        <linearGradient id="paint1_linear_1313_2438" x1="27.9933" y1="12.9418" x2="27.9933"
            y2="35.3588" gradientUnits="userSpaceOnUse">
            <stop stop-color="#FA393A" />
            <stop offset="1" stop-color="#FA6739" />
        </linearGradient>
        <linearGradient id="paint2_linear_1313_2438" x1="27.978" y1="37.8066" x2="27.978"
            y2="43.2753" gradientUnits="userSpaceOnUse">
            <stop stop-color="#FA393A" />
            <stop offset="1" stop-color="#FA6739" />
        </linearGradient>
    </defs>
</svg>
    