<svg width="48" height="48" viewBox="0 0 48 48" fill="none" xmlns="http://www.w3.org/2000/svg">
    <path
        d="M24.0934 44.5611C18.5142 44.5611 13.2691 42.3989 9.32392 38.4732C5.37714 34.5441 3.20312 29.3215 3.20312 23.7633C3.20312 18.2064 5.37723 12.9824 9.32252 9.05503C13.2678 5.12915 18.5127 2.96704 24.0919 2.96704C29.6711 2.96704 34.9162 5.12915 38.8596 9.05503C42.808 12.9824 44.9807 18.2064 44.9807 23.7619C44.9821 29.3202 42.808 34.5441 38.8596 38.4712C34.9176 42.397 29.6726 44.5611 24.0934 44.5611ZM24.0934 5.9497C19.3081 5.9497 14.8106 7.80299 11.4295 11.1694C8.04963 14.5326 6.18742 19.0061 6.18742 23.7633C6.18742 28.5205 8.04808 32.9936 11.4279 36.3557C14.8091 39.7219 19.3064 41.575 24.0918 41.575C28.8757 41.575 33.3746 39.7218 36.7557 36.3557C40.1354 32.9908 41.9979 28.5186 41.9962 23.7616C41.9962 19.0046 40.1354 14.5327 36.7557 11.1707C33.376 7.80454 28.8771 5.9497 24.0934 5.9497ZM34.5385 22.2711H25.5855V13.3181C25.5855 12.4944 24.9171 11.8259 24.0933 11.8259C23.2696 11.8259 22.6012 12.4944 22.6012 13.3181V22.2712H13.6482C12.8245 22.2712 12.1561 22.9396 12.1561 23.7633C12.1561 24.5868 12.8245 25.2555 13.6482 25.2555H22.6012V34.2084C22.6012 35.0337 23.2697 35.7005 24.0934 35.7005C24.9173 35.7005 25.5855 35.0337 25.5855 34.2084V25.2554H34.5385C35.3638 25.2554 36.0306 24.5867 36.0306 23.7633C36.0306 22.9393 35.3638 22.2711 34.5385 22.2711Z"
        fill="currentColor" />
</svg>
    