<svg width="24" height="24" viewBox="0 0 24 24" fill="none" xmlns="http://www.w3.org/2000/svg">
    <g clip-path="url(#clip0_1746_123)">
        <rect width="24" height="24" rx="12" fill="#DEEEFF" />
        <path
            d="M6.00084 14.0306H5L7.13171 11.8988L9.26342 14.0306H8.33826C8.71283 14.6788 9.25139 15.2171 9.89985 15.5913C10.5483 15.9656 11.2838 16.1626 12.0325 16.1626C12.7812 16.1626 13.5167 15.9656 14.1652 15.5913C14.8136 15.2171 15.3522 14.6788 15.7268 14.0306H18.0642C17.6235 15.2784 16.8068 16.3588 15.7264 17.1231C14.6461 17.8873 13.3553 18.2977 12.032 18.2977C10.7086 18.2977 9.41788 17.8873 8.33752 17.1231C7.25717 16.3588 6.44041 15.2784 5.99977 14.0306H6.00084ZM18.0652 9.76713H19L16.8683 11.8988L14.7366 9.76713H15.7278C15.3533 9.11887 14.8147 8.5806 14.1662 8.20636C13.5178 7.83213 12.7823 7.63512 12.0336 7.63512C11.2849 7.63512 10.5494 7.83213 9.90091 8.20636C9.25246 8.5806 8.7139 9.11887 8.33932 9.76713H6.00084C6.44147 8.51931 7.25824 7.43885 8.33859 6.67462C9.41894 5.91039 10.7097 5.5 12.033 5.5C13.3564 5.5 14.6471 5.91039 15.7275 6.67462C16.8078 7.43885 17.6246 8.51931 18.0652 9.76713Z"
            fill="#4DA3FF" />
    </g>
    <defs>
        <clipPath id="clip0_1746_123">
            <rect width="24" height="24" fill="white" />
        </clipPath>
    </defs>
</svg>
    